<?xml version="1.0" encoding="utf-8"?>
<!-- Generator: Adobe Illustrator 20.1.0, SVG Export Plug-In . SVG Version: 6.00 Build 0)  -->
<svg version="1.1" id="Capa_1" xmlns="http://www.w3.org/2000/svg" xmlns:xlink="http://www.w3.org/1999/xlink" x="0px" y="0px"
	 width="35.1px" height="30.2px" viewBox="0 0 35.1 30.2" style="enable-background:new 0 0 35.1 30.2;" xml:space="preserve">
<style type="text/css">
	.st0{fill:#FFFFFF;}
</style>
<g>
	<g>
		<path class="st0" d="M13.4,16.2c-0.8,1.2-1.6,2.3-2.6,3.4c-2.3,2.4-5.3,3.1-8.6,2.9c-2.9-0.1-2.9,4.4,0,4.5
			c6.1,0.3,10.4-2.3,13.9-6.8c-0.6-0.7-1.1-1.5-1.6-2.2C14.1,17.4,13.7,16.8,13.4,16.2z"/>
		<path class="st0" d="M19.3,12.6c0.3,0.5,0.6,1,0.9,1.5c0.6-0.8,1.2-1.6,1.9-2.3c1.7-1.8,3.7-2.5,5.9-2.7c-0.1,0.2-0.3,0.3-0.4,0.5
			c-0.8,0.9-0.9,2.3,0,3.2c0.8,0.8,2.4,0.9,3.2,0c1.2-1.5,2.4-3,3.6-4.4c0.8-0.8,1.1-2.1,0.1-3.2l-4.1-4.4c-2-2.2-5.2,1.1-3.2,3.2
			l0.5,0.6c-2.2,0.2-4.4,0.7-6.4,2c-1.5,1-2.7,2.2-3.8,3.6c0.2,0.3,0.4,0.6,0.7,1C18.6,11.5,18.9,12.1,19.3,12.6z"/>
		<path class="st0" d="M30.8,17.5c-0.4-0.5-1-0.7-1.5-0.7c-0.6,0-1.3,0.2-1.7,0.7c-0.9,0.9-0.8,2.3,0,3.2c0.1,0.2,0.3,0.3,0.4,0.5
			c-2.2-0.2-4.2-0.9-5.9-2.7c-1-1-1.8-2.2-2.6-3.3c-0.8-1.1-1.5-2.3-2.2-3.4c-0.1-0.2-0.3-0.4-0.4-0.6C13.4,6.2,9.2,3.2,3.2,3.2
			c-0.3,0-0.6,0-1,0C-0.7,3.3-0.7,7.7,2,7.7c0,0,0.1,0,0.1,0c0.3,0,0.6,0,0.9,0c2.9,0,5.6,0.7,7.7,2.9c1.3,1.4,2.3,2.9,3.3,4.5
			c0.5,0.7,0.9,1.5,1.4,2.2c0.4,0.6,0.9,1.3,1.3,1.9c1.3,1.7,2.8,3.3,4.6,4.5c2,1.3,4.1,1.9,6.4,2l-0.5,0.6c-1.5,1.6,0,3.9,1.7,3.9
			c0.5,0,1-0.2,1.5-0.7l4.1-4.4c1-1.1,0.7-2.4-0.1-3.2C33.2,20.4,32,18.9,30.8,17.5z"/>
	</g>
</g>
</svg>
